# xmcd CD database file
# Copyright (C) 1993-1998 Ti Kan
# 
# Track frame offsets:
#     150
#     13812
#     26852
#     38040
#     52215
#     67390
#     81527
#     93192
#     105450
#     117682
#     131335
#     140142
# 
# Disc length: 2057 seconds
# 
# Revision: 1
# Processed by: cddbd v1.4b41PL1 Copyright (c) Steve Scherf et al.
# Submitted via: DiscPlay 4.0.4
# 
DISCID=b708070c
DTITLE=Billy Ward And His Dominoes - Bill Ward And His Dominoes (Featuring C
DTITLE=lyde McPhatter and Jackie Wilson)
DYEAR=1900
DGENRE=
TTITLE0=Tenderly
TTITLE1=Over The Rainbow
TTITLE2=Learning The blues
TTITLE3=When The Swallows Come Back To Capistrano
TTITLE4=Harbor Lights
TTITLE5=These Foolish Things
TTITLE6=Three Coins In The Fountain
TTITLE7=Little Things Mean A Lot
TTITLE8=Rags To Riches
TTITLE9=May I Never Love Again
TTITLE10=Lonesome Road
TTITLE11=Until The Real Thing Comes Along
EXTD=
EXTT0=
EXTT1=
EXTT2=
EXTT3=
EXTT4=
EXTT5=
EXTT6=
EXTT7=
EXTT8=
EXTT9=
EXTT10=
EXTT11=
PLAYORDER=
